<svg width="396" height="379" viewBox="0 0 396 379" fill="none" xmlns="http://www.w3.org/2000/svg">
<path d="M40.7346 73.338C40.7346 156.677 0 213.906 0 254.064C0 294.221 21.7827 378.56 196.101 378.56C370.42 378.56 396 265.1 396 220.931C396.011 14.0961 40.7346 -74.2546 40.7346 73.338V73.338Z" fill="#3030FF" fill-opacity="0.1"/>
<path d="M279.75 121.076C270.788 121.076 263.5 113.369 263.5 103.893C263.5 94.4161 270.788 86.7095 279.75 86.7095C288.712 86.7095 296 94.4161 296 103.893C296 113.369 288.712 121.076 279.75 121.076ZM279.75 99.5969C277.516 99.5969 275.688 101.521 275.688 103.893C275.688 106.264 277.516 108.188 279.75 108.188C281.984 108.188 283.812 106.264 283.812 103.893C283.812 101.521 281.984 99.5969 279.75 99.5969Z" fill="#3030FF"/>
<path d="M279.75 189.809C270.788 189.809 263.5 182.102 263.5 172.626C263.5 163.149 270.788 155.442 279.75 155.442C288.712 155.442 296 163.149 296 172.626C296 182.102 288.712 189.809 279.75 189.809ZM279.75 168.33C277.516 168.33 275.688 170.254 275.688 172.626C275.688 174.997 277.516 176.921 279.75 176.921C281.984 176.921 283.812 174.997 283.812 172.626C283.812 170.254 281.984 168.33 279.75 168.33Z" fill="#3030FF"/>
<path d="M222.875 155.442C213.913 155.442 206.625 147.735 206.625 138.259C206.625 128.782 213.913 121.076 222.875 121.076C231.837 121.076 239.125 128.782 239.125 138.259C239.125 147.735 231.837 155.442 222.875 155.442ZM222.875 133.963C220.641 133.963 218.812 135.888 218.812 138.259C218.812 140.63 220.641 142.555 222.875 142.555C225.109 142.555 226.938 140.63 226.938 138.259C226.938 135.888 225.109 133.963 222.875 133.963Z" fill="#3030FF"/>
<path d="M269.261 172.711C268.237 172.711 267.205 172.436 266.254 171.861L230.342 150.21C227.417 148.449 226.401 144.514 228.067 141.421C229.724 138.319 233.454 137.245 236.371 139.015L272.283 160.666C275.208 162.427 276.224 166.362 274.558 169.455C273.445 171.543 271.381 172.711 269.261 172.711V172.711Z" fill="#3030FF"/>
<path d="M233.364 138.345C231.244 138.345 229.18 137.176 228.067 135.097C226.401 132.004 227.417 128.069 230.342 126.308L266.254 104.657C269.163 102.887 272.893 103.961 274.558 107.063C276.224 110.156 275.208 114.091 272.283 115.852L236.371 137.503C235.42 138.07 234.388 138.345 233.364 138.345V138.345Z" fill="#3030FF"/>
<path d="M273.656 292.908H123.344C111.018 292.908 101 282.315 101 269.281V127.52C101 114.486 111.018 103.893 123.344 103.893H200.775C204.139 103.893 206.869 106.779 206.869 110.336C206.869 113.893 204.139 116.78 200.775 116.78H123.344C117.746 116.78 113.188 121.6 113.188 127.52V269.281C113.188 275.201 117.746 280.021 123.344 280.021H273.656C279.254 280.021 283.812 275.201 283.812 269.281V207.507C283.812 203.95 286.542 201.064 289.906 201.064C293.27 201.064 296 203.95 296 207.507V269.281C296 282.315 285.982 292.908 273.656 292.908Z" fill="#3030FF"/>
<path d="M188.425 146.851H107.094C103.73 146.851 101 143.964 101 140.407C101 136.85 103.73 133.963 107.094 133.963H188.425C191.789 133.963 194.519 136.85 194.519 140.407C194.519 143.964 191.789 146.851 188.425 146.851Z" fill="#3030FF"/>
<path d="M212.719 254.246C211.313 254.246 209.899 253.73 208.754 252.691C206.202 250.371 205.902 246.307 208.095 243.601L216.879 232.767L208.095 221.924C205.902 219.227 206.202 215.154 208.754 212.834C211.305 210.523 215.156 210.833 217.35 213.53L229.537 228.566C231.495 230.98 231.495 234.537 229.537 236.96L217.35 251.995C216.139 253.481 214.433 254.246 212.719 254.246Z" fill="#3030FF"/>
<path d="M159.906 254.246C158.192 254.246 156.486 253.481 155.283 251.995L143.096 236.96C141.137 234.545 141.137 230.988 143.096 228.566L155.283 213.53C157.477 210.833 161.32 210.523 163.879 212.834C166.431 215.154 166.731 219.218 164.537 221.924L155.746 232.767L164.529 243.61C166.723 246.307 166.422 250.38 163.871 252.699C162.726 253.73 161.312 254.246 159.906 254.246Z" fill="#3030FF"/>
<path d="M180.227 267.133C179.764 267.133 179.309 267.082 178.846 266.961C175.571 266.162 173.524 262.708 174.279 259.237L186.467 203.392C187.231 199.921 190.546 197.747 193.771 198.564C197.046 199.363 199.093 202.816 198.338 206.287L186.15 262.133C185.5 265.123 182.998 267.133 180.227 267.133V267.133Z" fill="#3030FF"/>
</svg>
