<svg width="396" height="379" viewBox="0 0 396 379" fill="none" xmlns="http://www.w3.org/2000/svg">
<path d="M40.7346 73.338C40.7346 156.677 0 213.906 0 254.064C0 294.221 21.7827 378.56 196.101 378.56C370.42 378.56 396 265.1 396 220.931C396.011 14.0961 40.7346 -74.2546 40.7346 73.338Z" fill="#3030FF" fill-opacity="0.1"/>
<g clip-path="url(#clip0_67_171)">
<path fill-rule="evenodd" clip-rule="evenodd" d="M214.958 91.302C219.975 91.302 224.787 93.295 228.334 96.8426C231.882 100.39 233.875 105.202 233.875 110.219V129.135C233.875 134.152 231.882 138.964 228.334 142.511C224.787 146.059 219.975 148.052 214.958 148.052V166.969H252.791C260.317 166.969 267.534 169.958 272.856 175.28C278.177 180.601 281.166 187.818 281.166 195.344V204.802C286.184 204.802 290.995 206.795 294.543 210.343C298.09 213.89 300.083 218.702 300.083 223.719V242.635C300.083 247.652 298.09 252.464 294.543 256.011C290.995 259.559 286.184 261.552 281.166 261.552H262.25C257.233 261.552 252.421 259.559 248.874 256.011C245.326 252.464 243.333 247.652 243.333 242.635V223.719C243.333 218.702 245.326 213.89 248.874 210.343C252.421 206.795 257.233 204.802 262.25 204.802V195.344C262.25 192.835 261.253 190.429 259.48 188.656C257.706 186.882 255.3 185.885 252.791 185.885H214.958V204.802C219.975 204.802 224.787 206.795 228.334 210.343C231.882 213.89 233.875 218.702 233.875 223.719V242.635C233.875 247.652 231.882 252.464 228.334 256.011C224.787 259.559 219.975 261.552 214.958 261.552H196.042C191.024 261.552 186.213 259.559 182.665 256.011C179.118 252.464 177.125 247.652 177.125 242.635V223.719C177.125 218.702 179.118 213.89 182.665 210.343C186.213 206.795 191.024 204.802 196.042 204.802V185.885H158.208C155.7 185.885 153.294 186.882 151.52 188.656C149.746 190.429 148.75 192.835 148.75 195.344V204.802C153.767 204.802 158.578 206.795 162.126 210.343C165.674 213.89 167.667 218.702 167.667 223.719V242.635C167.667 247.652 165.674 252.464 162.126 256.011C158.578 259.559 153.767 261.552 148.75 261.552H129.833C124.816 261.552 120.005 259.559 116.457 256.011C112.91 252.464 110.917 247.652 110.917 242.635V223.719C110.917 218.702 112.91 213.89 116.457 210.343C120.005 206.795 124.816 204.802 129.833 204.802V195.344C129.833 187.818 132.823 180.601 138.144 175.28C143.465 169.958 150.683 166.969 158.208 166.969H196.042V148.052C191.024 148.052 186.213 146.059 182.665 142.511C179.118 138.964 177.125 134.152 177.125 129.135V110.219C177.125 105.202 179.118 100.39 182.665 96.8426C186.213 93.295 191.024 91.302 196.042 91.302H214.958ZM281.166 223.719H262.25V242.635H281.166V223.719ZM148.75 223.719H129.833V242.635H148.75V223.719ZM214.958 223.719H196.042V242.635H214.958V223.719ZM214.958 110.219H196.042V129.135H214.958V110.219Z" fill="#3030FF"/>
</g>
<defs>
<clipPath id="clip0_67_171">
<rect width="227" height="227" fill="white" transform="translate(92 62.927)"/>
</clipPath>
</defs>
</svg>
