<svg width="284" height="120" viewBox="0 0 284 120" fill="none" xmlns="http://www.w3.org/2000/svg">
<path d="M29.6721 80.5272C22.0909 80.5272 15.6645 77.9666 10.3928 72.8455C5.17129 67.7245 2.56054 61.2478 2.56054 53.4156C2.56054 45.5833 5.17129 39.1318 10.3928 34.0609C15.6645 28.9398 22.0909 26.3793 29.6721 26.3793C37.3036 26.3793 43.7049 28.9398 48.8762 34.0609C54.0977 39.1318 56.7084 45.5833 56.7084 53.4156C56.7084 57.8338 55.8047 61.9005 53.9973 65.6158C52.24 69.2809 49.805 72.3435 46.6922 74.8036L57.4615 88.6606H41.8724L35.471 79.9247C33.4627 80.3263 31.5298 80.5272 29.6721 80.5272ZM19.43 42.345C16.9196 45.1064 15.6645 48.7966 15.6645 53.4156C15.6645 58.0346 16.9196 61.7248 19.43 64.4861C21.9905 67.2475 25.3795 68.6282 29.5968 68.6282C33.8644 68.6282 37.2533 67.2475 39.7637 64.4861C42.3242 61.7248 43.6045 58.0346 43.6045 53.4156C43.6045 48.7966 42.3242 45.1064 39.7637 42.345C37.2533 39.5836 33.8644 38.203 29.5968 38.203C25.3795 38.203 21.9905 39.5836 19.43 42.345ZM73.7997 59.4404V80H60.9217V27.1324H81.7825C87.9078 27.1324 92.6774 28.7139 96.0914 31.8769C99.5055 35.0399 101.213 38.8556 101.213 43.324C101.213 46.3866 100.284 49.3739 98.426 52.2859C96.5684 55.1979 93.5309 57.2564 89.3135 58.4613L102.267 80H87.2049L75.3059 59.4404H73.7997ZM73.7997 36.9227V49.6501H81.7825C83.7406 49.6501 85.2719 49.0727 86.3764 47.9179C87.5312 46.7632 88.1086 45.257 88.1086 43.3993C88.1086 41.4915 87.5312 39.9351 86.3764 38.7301C85.2217 37.5252 83.6904 36.9227 81.7825 36.9227H73.7997ZM140.823 64.4861C143.384 61.7248 144.664 58.0346 144.664 53.4156C144.664 48.7966 143.384 45.1064 140.823 42.345C138.313 39.5836 134.924 38.203 130.656 38.203C126.439 38.203 123.05 39.5836 120.49 42.345C117.979 45.1064 116.724 48.7966 116.724 53.4156C116.724 58.0346 117.979 61.7248 120.49 64.4861C123.05 67.2475 126.439 68.6282 130.656 68.6282C134.924 68.6282 138.313 67.2475 140.823 64.4861ZM111.452 72.8455C106.231 67.7245 103.62 61.2478 103.62 53.4156C103.62 45.5833 106.231 39.1318 111.452 34.0609C116.724 28.9398 123.15 26.3793 130.732 26.3793C138.363 26.3793 144.764 28.9398 149.936 34.0609C155.157 39.1318 157.768 45.5833 157.768 53.4156C157.768 61.2478 155.157 67.7245 149.936 72.8455C144.714 77.9666 138.313 80.5272 130.732 80.5272C123.15 80.5272 116.724 77.9666 111.452 72.8455ZM167.113 41.7425C167.113 43.6504 167.64 45.2319 168.694 46.487C169.749 47.7422 171.104 48.671 172.761 49.2735C174.418 49.876 176.25 50.4032 178.259 50.855C180.317 51.3069 182.351 51.8341 184.359 52.4365C186.417 52.9888 188.275 53.7168 189.932 54.6205C191.589 55.5243 192.944 56.8798 193.999 58.6873C195.053 60.4947 195.58 62.7289 195.58 65.3899C195.58 69.4566 194.024 72.9962 190.911 76.0086C187.798 79.021 183.581 80.5272 178.259 80.5272C172.987 80.5272 168.694 79.3222 165.381 76.9123C162.067 74.4522 160.41 71.1385 160.41 66.9714H167.715C167.916 69.3311 168.845 71.2389 170.502 72.6949C172.209 74.1509 174.719 74.8789 178.033 74.8789C181.346 74.8789 183.982 74.0254 185.94 72.3184C187.898 70.6114 188.877 68.6282 188.877 66.3689C188.877 64.0594 188.35 62.3021 187.296 61.0972C186.242 59.842 184.886 58.9132 183.229 58.3107C181.572 57.7082 179.715 57.2062 177.656 56.8045C175.648 56.3527 173.615 55.8255 171.556 55.223C169.548 54.6205 167.715 53.8674 166.059 52.9637C164.402 52.0098 163.046 50.6291 161.992 48.8217C160.937 46.964 160.41 44.6796 160.41 41.9685C160.41 37.5503 161.967 34.0107 165.08 31.3497C168.243 28.6386 172.334 27.283 177.355 27.283C182.426 27.283 186.442 28.4629 189.405 30.8226C192.417 33.1321 194.149 36.3453 194.601 40.4622H186.995C186.794 38.4038 185.815 36.6465 184.058 35.1905C182.351 33.7346 180.016 33.0066 177.054 33.0066C174.142 33.0066 171.757 33.7597 169.899 35.2659C168.042 36.7219 167.113 38.8807 167.113 41.7425ZM201.222 80V27.8102H208.075V80H201.222ZM212.534 33.3078V27.8102H246.951V33.3078H233.169V80H226.316V33.3078H212.534ZM279.101 27.8102V33.2325H258.315V51.0056H276.841V56.3527H258.315V74.5777H279.101V80H251.462V27.8102H279.101Z" fill="#3030FF"/>
<path d="M63.8255 97.0739C62.6027 97.0739 61.5687 96.6635 60.7234 95.8429C59.8781 95.0222 59.4555 93.9799 59.4555 92.7161C59.4555 91.4441 59.8781 90.3977 60.7234 89.5771C61.5687 88.7482 62.6027 88.3338 63.8255 88.3338C64.7365 88.3338 65.5448 88.5594 66.2506 89.0108C66.9646 89.454 67.4816 90.0859 67.8017 90.9065H66.1152C65.6556 90.0448 64.8924 89.614 63.8255 89.614C62.9638 89.614 62.258 89.8971 61.7082 90.4634C61.1666 91.0296 60.8957 91.7806 60.8957 92.7161C60.8957 93.6435 61.1666 94.3903 61.7082 94.9565C62.258 95.5228 62.9638 95.8059 63.8255 95.8059C64.8924 95.8059 65.6556 95.3751 66.1152 94.5134H67.8017C67.4816 95.334 66.9646 95.966 66.2506 96.4091C65.5448 96.8523 64.7365 97.0739 63.8255 97.0739ZM73.8512 95.3135C74.2616 94.9032 74.4667 94.3328 74.4667 93.6024C74.4667 92.872 74.2657 92.3058 73.8636 91.9037C73.4696 91.4933 72.9895 91.2882 72.4233 91.2882C71.857 91.2882 71.381 91.4933 70.9953 91.9037C70.6096 92.3058 70.4168 92.8761 70.4168 93.6147C70.4168 94.3451 70.6055 94.9155 70.983 95.3258C71.3605 95.728 71.8283 95.929 72.3864 95.929C72.9526 95.929 73.4409 95.7239 73.8512 95.3135ZM72.3864 97.1108C71.4016 97.1108 70.5891 96.7907 69.949 96.1506C69.3089 95.5023 68.9888 94.657 68.9888 93.6147C68.9888 92.5643 69.3171 91.719 69.9736 91.0789C70.6383 90.4306 71.4631 90.1064 72.4479 90.1064C73.4327 90.1064 74.2534 90.4306 74.9099 91.0789C75.5746 91.719 75.907 92.5602 75.907 93.6024C75.907 94.6447 75.5664 95.49 74.8853 96.1383C74.2123 96.7866 73.3794 97.1108 72.3864 97.1108ZM78.6976 90.2172V91.2882C79.149 90.5003 79.8712 90.1064 80.8642 90.1064C81.6274 90.1064 82.2552 90.3608 82.7476 90.8696C83.2482 91.3784 83.4985 92.0883 83.4985 92.9992V97H82.1075V93.2085C82.1075 92.6012 81.9557 92.1375 81.652 91.8175C81.3484 91.4892 80.934 91.3251 80.4087 91.3251C79.8835 91.3251 79.465 91.4892 79.1531 91.8175C78.8495 92.1375 78.6976 92.6012 78.6976 93.2085V97H77.2943V90.2172H78.6976ZM84.9808 92.1622C84.9808 91.5877 85.2229 91.1035 85.7071 90.7096C86.1913 90.3075 86.8273 90.1064 87.6152 90.1064C88.403 90.1064 89.0267 90.3034 89.4863 90.6973C89.9541 91.083 90.2044 91.6123 90.2372 92.2853H88.7969C88.7723 91.9488 88.6533 91.6862 88.4399 91.4974C88.2348 91.3087 87.9434 91.2143 87.5659 91.2143C87.1884 91.2143 86.893 91.3005 86.6796 91.4728C86.4662 91.6369 86.3596 91.8585 86.3596 92.1375C86.3596 92.4084 86.495 92.6217 86.7658 92.7777C87.0366 92.9336 87.3649 93.0485 87.7506 93.1223C88.1445 93.1962 88.5343 93.2865 88.92 93.3932C89.314 93.4999 89.6463 93.6968 89.9171 93.984C90.188 94.2631 90.3234 94.6406 90.3234 95.1166C90.3234 95.7074 90.0731 96.1875 89.5725 96.5568C89.0801 96.9261 88.444 97.1108 87.6644 97.1108C86.8848 97.1108 86.2529 96.922 85.7687 96.5445C85.2845 96.167 85.0178 95.6295 84.9685 94.9319H86.4211C86.4457 95.2684 86.5688 95.531 86.7904 95.7198C87.012 95.9085 87.3115 96.0029 87.689 96.0029C88.0747 96.0029 88.3784 95.9208 88.6 95.7567C88.8298 95.5843 88.9447 95.3587 88.9447 95.0796C88.9447 94.8006 88.8092 94.5831 88.5384 94.4272C88.2676 94.2713 87.9352 94.1564 87.5413 94.0825C87.1556 94.0005 86.7658 93.9102 86.3719 93.8117C85.9862 93.705 85.6579 93.5163 85.3871 93.2454C85.1162 92.9746 84.9808 92.6135 84.9808 92.1622ZM95.1511 91.362H93.5016V95.1166C93.5016 95.371 93.559 95.5556 93.6739 95.6705C93.797 95.7772 94.0022 95.8305 94.2894 95.8305H95.1511V97H94.0432C92.7383 97 92.0859 96.3722 92.0859 95.1166V91.362H91.2858V90.2172H92.0859V88.5307H93.5016V90.2172H95.1511V91.362ZM97.8479 90.2172V91.3989C98.2828 90.5372 98.9599 90.1064 99.879 90.1064V91.559H99.522C98.9722 91.559 98.5536 91.6985 98.2664 91.9775C97.9874 92.2565 97.8479 92.7407 97.8479 93.4301V97H96.4445V90.2172H97.8479ZM105.908 90.2172H107.312V97H105.908V95.929C105.465 96.7087 104.743 97.0985 103.742 97.0985C102.979 97.0985 102.347 96.8482 101.846 96.3476C101.354 95.8388 101.107 95.1289 101.107 94.2179V90.2172H102.498V94.0087C102.498 94.616 102.65 95.0837 102.954 95.412C103.258 95.7321 103.672 95.8921 104.197 95.8921C104.722 95.8921 105.137 95.7321 105.441 95.412C105.752 95.0837 105.908 94.616 105.908 94.0087V90.2172ZM110.764 88.4199C110.764 88.6743 110.677 88.8877 110.505 89.06C110.333 89.2324 110.119 89.3186 109.865 89.3186C109.619 89.3186 109.409 89.2324 109.237 89.06C109.065 88.8877 108.979 88.6743 108.979 88.4199C108.979 88.1655 109.065 87.9521 109.237 87.7798C109.409 87.6075 109.619 87.5213 109.865 87.5213C110.119 87.5213 110.333 87.6075 110.505 87.7798C110.677 87.9521 110.764 88.1655 110.764 88.4199ZM109.163 97V90.2172H110.567V97H109.163ZM113.812 90.2172V91.2882C114.264 90.5003 114.986 90.1064 115.979 90.1064C116.742 90.1064 117.37 90.3608 117.862 90.8696C118.363 91.3784 118.613 92.0883 118.613 92.9992V97H117.222V93.2085C117.222 92.6012 117.07 92.1375 116.767 91.8175C116.463 91.4892 116.049 91.3251 115.523 91.3251C114.998 91.3251 114.58 91.4892 114.268 91.8175C113.964 92.1375 113.812 92.6012 113.812 93.2085V97H112.409V90.2172H113.812ZM124.872 95.2766C125.282 94.8581 125.487 94.3 125.487 93.6024C125.487 92.9049 125.282 92.3509 124.872 91.9406C124.47 91.5303 123.99 91.3251 123.432 91.3251C122.874 91.3251 122.389 91.5262 121.979 91.9283C121.577 92.3304 121.376 92.8803 121.376 93.5778C121.376 94.2754 121.577 94.8375 121.979 95.2643C122.389 95.6828 122.874 95.8921 123.432 95.8921C123.99 95.8921 124.47 95.6869 124.872 95.2766ZM123.136 97.1108C122.233 97.1108 121.474 96.7825 120.859 96.126C120.243 95.4612 119.936 94.616 119.936 93.5901C119.936 92.5561 120.239 91.719 120.847 91.0789C121.462 90.4306 122.225 90.1064 123.136 90.1064C123.67 90.1064 124.137 90.2295 124.54 90.4757C124.95 90.7137 125.266 91.0296 125.487 91.4236V87.8906H126.903V97H125.487V95.7321C125.258 96.1506 124.942 96.4871 124.54 96.7415C124.137 96.9877 123.67 97.1108 123.136 97.1108ZM133.153 95.3135C133.564 94.9032 133.769 94.3328 133.769 93.6024C133.769 92.872 133.568 92.3058 133.166 91.9037C132.772 91.4933 132.292 91.2882 131.725 91.2882C131.159 91.2882 130.683 91.4933 130.297 91.9037C129.912 92.3058 129.719 92.8761 129.719 93.6147C129.719 94.3451 129.907 94.9155 130.285 95.3258C130.663 95.728 131.13 95.929 131.688 95.929C132.255 95.929 132.743 95.7239 133.153 95.3135ZM131.688 97.1108C130.704 97.1108 129.891 96.7907 129.251 96.1506C128.611 95.5023 128.291 94.657 128.291 93.6147C128.291 92.5643 128.619 91.719 129.276 91.0789C129.94 90.4306 130.765 90.1064 131.75 90.1064C132.735 90.1064 133.555 90.4306 134.212 91.0789C134.877 91.719 135.209 92.5602 135.209 93.6024C135.209 94.6447 134.868 95.49 134.187 96.1383C133.514 96.7866 132.681 97.1108 131.688 97.1108ZM140.287 90.2172H141.69V98.3295C141.69 99.5933 141.042 100.225 139.745 100.225H139.019V99.0435H139.499C139.786 99.0435 139.987 98.986 140.102 98.8711C140.225 98.7644 140.287 98.5839 140.287 98.3295V90.2172ZM141.887 88.4199C141.887 88.6743 141.801 88.8877 141.629 89.06C141.456 89.2324 141.243 89.3186 140.989 89.3186C140.742 89.3186 140.533 89.2324 140.361 89.06C140.188 88.8877 140.102 88.6743 140.102 88.4199C140.102 88.1655 140.188 87.9521 140.361 87.7798C140.533 87.6075 140.742 87.5213 140.989 87.5213C141.243 87.5213 141.456 87.6075 141.629 87.7798C141.801 87.9521 141.887 88.1655 141.887 88.4199ZM148.272 90.2172H149.675V97H148.272V95.929C147.829 96.7087 147.107 97.0985 146.105 97.0985C145.342 97.0985 144.71 96.8482 144.21 96.3476C143.717 95.8388 143.471 95.1289 143.471 94.2179V90.2172H144.862V94.0087C144.862 94.616 145.014 95.0837 145.318 95.412C145.621 95.7321 146.036 95.8921 146.561 95.8921C147.086 95.8921 147.501 95.7321 147.804 95.412C148.116 95.0837 148.272 94.616 148.272 94.0087V90.2172ZM152.93 90.2172V91.2882C153.382 90.5003 154.104 90.1064 155.097 90.1064C155.86 90.1064 156.488 90.3608 156.98 90.8696C157.481 91.3784 157.731 92.0883 157.731 92.9992V97H156.34V93.2085C156.34 92.6012 156.188 92.1375 155.885 91.8175C155.581 91.4892 155.167 91.3251 154.641 91.3251C154.116 91.3251 153.698 91.4892 153.386 91.8175C153.082 92.1375 152.93 92.6012 152.93 93.2085V97H151.527V90.2172H152.93ZM162.808 91.362H161.158V95.1166C161.158 95.371 161.216 95.5556 161.331 95.6705C161.454 95.7772 161.659 95.8305 161.946 95.8305H162.808V97H161.7C160.395 97 159.743 96.3722 159.743 95.1166V91.362H158.943V90.2172H159.743V88.5307H161.158V90.2172H162.808V91.362ZM168.508 95.3135C168.919 94.9032 169.124 94.3328 169.124 93.6024C169.124 92.872 168.923 92.3058 168.521 91.9037C168.127 91.4933 167.647 91.2882 167.08 91.2882C166.514 91.2882 166.038 91.4933 165.653 91.9037C165.267 92.3058 165.074 92.8761 165.074 93.6147C165.074 94.3451 165.263 94.9155 165.64 95.3258C166.018 95.728 166.485 95.929 167.044 95.929C167.61 95.929 168.098 95.7239 168.508 95.3135ZM167.044 97.1108C166.059 97.1108 165.246 96.7907 164.606 96.1506C163.966 95.5023 163.646 94.657 163.646 93.6147C163.646 92.5643 163.974 91.719 164.631 91.0789C165.296 90.4306 166.12 90.1064 167.105 90.1064C168.09 90.1064 168.911 90.4306 169.567 91.0789C170.232 91.719 170.564 92.5602 170.564 93.6024C170.564 94.6447 170.224 95.49 169.542 96.1383C168.87 96.7866 168.037 97.1108 167.044 97.1108ZM171.644 92.1622C171.644 91.5877 171.886 91.1035 172.37 90.7096C172.854 90.3075 173.49 90.1064 174.278 90.1064C175.066 90.1064 175.69 90.3034 176.149 90.6973C176.617 91.083 176.867 91.6123 176.9 92.2853H175.46C175.435 91.9488 175.316 91.6862 175.103 91.4974C174.898 91.3087 174.606 91.2143 174.229 91.2143C173.851 91.2143 173.556 91.3005 173.343 91.4728C173.129 91.6369 173.022 91.8585 173.022 92.1375C173.022 92.4084 173.158 92.6217 173.429 92.7777C173.699 92.9336 174.028 93.0485 174.413 93.1223C174.807 93.1962 175.197 93.2865 175.583 93.3932C175.977 93.4999 176.309 93.6968 176.58 93.984C176.851 94.2631 176.986 94.6406 176.986 95.1166C176.986 95.7074 176.736 96.1875 176.235 96.5568C175.743 96.9261 175.107 97.1108 174.327 97.1108C173.548 97.1108 172.916 96.922 172.432 96.5445C171.947 96.167 171.681 95.6295 171.631 94.9319H173.084C173.109 95.2684 173.232 95.531 173.453 95.7198C173.675 95.9085 173.974 96.0029 174.352 96.0029C174.738 96.0029 175.041 95.9208 175.263 95.7567C175.493 95.5843 175.608 95.3587 175.608 95.0796C175.608 94.8006 175.472 94.5831 175.201 94.4272C174.93 94.2713 174.598 94.1564 174.204 94.0825C173.818 94.0005 173.429 93.9102 173.035 93.8117C172.649 93.705 172.321 93.5163 172.05 93.2454C171.779 92.9746 171.644 92.6135 171.644 92.1622ZM186.625 95.3135C187.035 94.9032 187.24 94.3328 187.24 93.6024C187.24 92.872 187.039 92.3058 186.637 91.9037C186.243 91.4933 185.763 91.2882 185.197 91.2882C184.631 91.2882 184.155 91.4933 183.769 91.9037C183.383 92.3058 183.19 92.8761 183.19 93.6147C183.19 94.3451 183.379 94.9155 183.757 95.3258C184.134 95.728 184.602 95.929 185.16 95.929C185.726 95.929 186.214 95.7239 186.625 95.3135ZM185.16 97.1108C184.175 97.1108 183.363 96.7907 182.723 96.1506C182.082 95.5023 181.762 94.657 181.762 93.6147C181.762 92.5643 182.091 91.719 182.747 91.0789C183.412 90.4306 184.237 90.1064 185.221 90.1064C186.206 90.1064 187.027 90.4306 187.683 91.0789C188.348 91.719 188.681 92.5602 188.681 93.6024C188.681 94.6447 188.34 95.49 187.659 96.1383C186.986 96.7866 186.153 97.1108 185.16 97.1108ZM195.162 90.2172V91.2882C195.613 90.5003 196.335 90.1064 197.328 90.1064C197.854 90.1064 198.321 90.2295 198.732 90.4757C199.142 90.7219 199.454 91.0789 199.667 91.5467C199.905 91.0953 200.234 90.7424 200.652 90.488C201.079 90.2336 201.559 90.1064 202.092 90.1064C202.872 90.1064 203.512 90.3608 204.013 90.8696C204.513 91.3702 204.764 92.0801 204.764 92.9992V97H203.36V93.2085C203.36 92.6012 203.208 92.1375 202.905 91.8175C202.601 91.4892 202.187 91.3251 201.661 91.3251C201.136 91.3251 200.722 91.4892 200.418 91.8175C200.115 92.1375 199.963 92.6012 199.963 93.2085V97H198.572V93.2085C198.572 92.6012 198.42 92.1375 198.116 91.8175C197.813 91.4892 197.398 91.3251 196.873 91.3251C196.348 91.3251 195.929 91.4892 195.617 91.8175C195.314 92.1375 195.162 92.6012 195.162 93.2085V97H193.758V90.2172H195.162ZM211.289 90.2172H212.692V97H211.289V95.929C210.845 96.7087 210.123 97.0985 209.122 97.0985C208.359 97.0985 207.727 96.8482 207.226 96.3476C206.734 95.8388 206.488 95.1289 206.488 94.2179V90.2172H207.879V94.0087C207.879 94.616 208.031 95.0837 208.334 95.412C208.638 95.7321 209.052 95.8921 209.578 95.8921C210.103 95.8921 210.517 95.7321 210.821 95.412C211.133 95.0837 211.289 94.616 211.289 94.0087V90.2172ZM215.947 90.2172V91.2882C216.398 90.5003 217.12 90.1064 218.113 90.1064C218.877 90.1064 219.505 90.3608 219.997 90.8696C220.498 91.3784 220.748 92.0883 220.748 92.9992V97H219.357V93.2085C219.357 92.6012 219.205 92.1375 218.901 91.8175C218.598 91.4892 218.183 91.3251 217.658 91.3251C217.133 91.3251 216.714 91.4892 216.402 91.8175C216.099 92.1375 215.947 92.6012 215.947 93.2085V97H214.544V90.2172H215.947ZM227.006 95.2766C227.417 94.8581 227.622 94.3 227.622 93.6024C227.622 92.9049 227.417 92.3509 227.006 91.9406C226.604 91.5303 226.124 91.3251 225.566 91.3251C225.008 91.3251 224.524 91.5262 224.114 91.9283C223.711 92.3304 223.51 92.8803 223.51 93.5778C223.51 94.2754 223.711 94.8375 224.114 95.2643C224.524 95.6828 225.008 95.8921 225.566 95.8921C226.124 95.8921 226.604 95.6869 227.006 95.2766ZM225.271 97.1108C224.368 97.1108 223.609 96.7825 222.993 96.126C222.378 95.4612 222.07 94.616 222.07 93.5901C222.07 92.5561 222.374 91.719 222.981 91.0789C223.597 90.4306 224.36 90.1064 225.271 90.1064C225.804 90.1064 226.272 90.2295 226.674 90.4757C227.084 90.7137 227.4 91.0296 227.622 91.4236V87.8906H229.038V97H227.622V95.7321C227.392 96.1506 227.076 96.4871 226.674 96.7415C226.272 96.9877 225.804 97.1108 225.271 97.1108ZM235.288 95.3135C235.698 94.9032 235.903 94.3328 235.903 93.6024C235.903 92.872 235.702 92.3058 235.3 91.9037C234.906 91.4933 234.426 91.2882 233.86 91.2882C233.294 91.2882 232.818 91.4933 232.432 91.9037C232.046 92.3058 231.853 92.8761 231.853 93.6147C231.853 94.3451 232.042 94.9155 232.42 95.3258C232.797 95.728 233.265 95.929 233.823 95.929C234.389 95.929 234.877 95.7239 235.288 95.3135ZM233.823 97.1108C232.838 97.1108 232.026 96.7907 231.385 96.1506C230.745 95.5023 230.425 94.657 230.425 93.6147C230.425 92.5643 230.754 91.719 231.41 91.0789C232.075 90.4306 232.9 90.1064 233.884 90.1064C234.869 90.1064 235.69 90.4306 236.346 91.0789C237.011 91.719 237.344 92.5602 237.344 93.6024C237.344 94.6447 237.003 95.49 236.322 96.1383C235.649 96.7866 234.816 97.1108 233.823 97.1108ZM246.89 95.2766C247.3 94.8581 247.505 94.3 247.505 93.6024C247.505 92.9049 247.3 92.3509 246.89 91.9406C246.488 91.5303 246.008 91.3251 245.45 91.3251C244.892 91.3251 244.407 91.5262 243.997 91.9283C243.595 92.3304 243.394 92.8803 243.394 93.5778C243.394 94.2754 243.595 94.8375 243.997 95.2643C244.407 95.6828 244.892 95.8921 245.45 95.8921C246.008 95.8921 246.488 95.6869 246.89 95.2766ZM245.154 97.1108C244.252 97.1108 243.492 96.7825 242.877 96.126C242.261 95.4612 241.954 94.616 241.954 93.5901C241.954 92.5561 242.257 91.719 242.865 91.0789C243.48 90.4306 244.243 90.1064 245.154 90.1064C245.688 90.1064 246.155 90.2295 246.558 90.4757C246.968 90.7137 247.284 91.0296 247.505 91.4236V87.8906H248.921V97H247.505V95.7321C247.276 96.1506 246.96 96.4871 246.558 96.7415C246.155 96.9877 245.688 97.1108 245.154 97.1108ZM252.365 88.4199C252.365 88.6743 252.278 88.8877 252.106 89.06C251.934 89.2324 251.72 89.3186 251.466 89.3186C251.22 89.3186 251.011 89.2324 250.838 89.06C250.666 88.8877 250.58 88.6743 250.58 88.4199C250.58 88.1655 250.666 87.9521 250.838 87.7798C251.011 87.6075 251.22 87.5213 251.466 87.5213C251.72 87.5213 251.934 87.6075 252.106 87.7798C252.278 87.9521 252.365 88.1655 252.365 88.4199ZM250.764 97V90.2172H252.168V97H250.764ZM256.743 97.1108C255.84 97.1108 255.081 96.7825 254.466 96.126C253.85 95.4612 253.542 94.616 253.542 93.5901C253.542 92.5561 253.846 91.719 254.453 91.0789C255.069 90.4306 255.832 90.1064 256.743 90.1064C257.276 90.1064 257.744 90.2295 258.146 90.4757C258.557 90.7137 258.873 91.0296 259.094 91.4236V90.2172H260.51V97.1108C260.51 98.0628 260.214 98.8383 259.623 99.4374C259.041 100.045 258.261 100.348 257.285 100.348C256.308 100.348 255.516 100.131 254.909 99.6959C254.301 99.2691 253.957 98.6865 253.875 97.9479H255.266C255.372 98.3008 255.598 98.5839 255.943 98.7973C256.296 99.0188 256.735 99.1296 257.26 99.1296C257.785 99.1296 258.22 98.9573 258.565 98.6126C258.918 98.2679 259.094 97.7673 259.094 97.1108V95.7321C258.864 96.1506 258.548 96.4871 258.146 96.7415C257.744 96.9877 257.276 97.1108 256.743 97.1108ZM258.479 95.2766C258.889 94.8581 259.094 94.3 259.094 93.6024C259.094 92.9049 258.889 92.3509 258.479 91.9406C258.077 91.5303 257.596 91.3251 257.038 91.3251C256.48 91.3251 255.996 91.5262 255.586 91.9283C255.184 92.3304 254.983 92.8803 254.983 93.5778C254.983 94.2754 255.184 94.8375 255.586 95.2643C255.996 95.6828 256.48 95.8921 257.038 95.8921C257.596 95.8921 258.077 95.6869 258.479 95.2766ZM263.953 88.4199C263.953 88.6743 263.867 88.8877 263.695 89.06C263.522 89.2324 263.309 89.3186 263.055 89.3186C262.808 89.3186 262.599 89.2324 262.427 89.06C262.255 88.8877 262.168 88.6743 262.168 88.4199C262.168 88.1655 262.255 87.9521 262.427 87.7798C262.599 87.6075 262.808 87.5213 263.055 87.5213C263.309 87.5213 263.522 87.6075 263.695 87.7798C263.867 87.9521 263.953 88.1655 263.953 88.4199ZM262.353 97V90.2172H263.756V97H262.353ZM268.886 91.362H267.236V95.1166C267.236 95.371 267.294 95.5556 267.408 95.6705C267.532 95.7772 267.737 95.8305 268.024 95.8305H268.886V97H267.778C266.473 97 265.82 96.3722 265.82 95.1166V91.362H265.02V90.2172H265.82V88.5307H267.236V90.2172H268.886V91.362ZM274.648 95.2766C275.058 94.8581 275.263 94.3 275.263 93.6024C275.263 92.9049 275.058 92.3509 274.648 91.9406C274.245 91.5303 273.765 91.3251 273.207 91.3251C272.649 91.3251 272.165 91.5262 271.755 91.9283C271.353 92.3304 271.152 92.8803 271.152 93.5778C271.152 94.2754 271.353 94.8375 271.755 95.2643C272.165 95.6828 272.649 95.8921 273.207 95.8921C273.765 95.8921 274.245 95.6869 274.648 95.2766ZM272.912 97.1108C272.009 97.1108 271.25 96.7825 270.634 96.126C270.019 95.4612 269.711 94.616 269.711 93.5901C269.711 92.5561 270.015 91.719 270.622 91.0789C271.238 90.4306 272.001 90.1064 272.912 90.1064C273.445 90.1064 273.913 90.2295 274.315 90.4757C274.726 90.7137 275.041 91.0296 275.263 91.4236V90.2172H276.679V97H275.263V95.7321C275.033 96.1506 274.717 96.4871 274.315 96.7415C273.913 96.9877 273.445 97.1108 272.912 97.1108ZM278.522 97V87.8906H279.925V97H278.522ZM282.888 96.7661C282.724 96.922 282.523 97 282.285 97C282.047 97 281.846 96.9179 281.682 96.7538C281.526 96.5897 281.448 96.3927 281.448 96.1629C281.448 95.9249 281.526 95.7239 281.682 95.5597C281.846 95.3956 282.047 95.3135 282.285 95.3135C282.523 95.3135 282.724 95.3956 282.888 95.5597C283.052 95.7239 283.134 95.9249 283.134 96.1629C283.134 96.4009 283.052 96.602 282.888 96.7661Z" fill="black"/>
<path d="M28.7 59C27.1 58.9167 25.75 58.3 24.65 57.15C23.55 56 23 54.6167 23 53C23 51.3333 23.5833 49.9167 24.75 48.75C25.9167 47.5833 27.3333 47 29 47C30.6167 47 32 47.55 33.15 48.65C34.3 49.75 34.9167 51.1 35 52.7L32.9 52.075C32.6833 51.175 32.2167 50.4377 31.5 49.863C30.7833 49.2883 29.95 49.0007 29 49C27.9 49 26.9583 49.3917 26.175 50.175C25.3917 50.9583 25 51.9 25 53C25 53.95 25.2877 54.7833 25.863 55.5C26.4383 56.2167 27.1757 56.6833 28.075 56.9L28.7 59ZM29.9 62.95C29.75 62.9833 29.6 63 29.45 63H29C27.6167 63 26.3167 62.7373 25.1 62.212C23.8833 61.6867 22.825 60.9743 21.925 60.075C21.025 59.175 20.3127 58.1167 19.788 56.9C19.2633 55.6833 19.0007 54.3833 19 53C19 51.6167 19.2627 50.3167 19.788 49.1C20.3133 47.8833 21.0257 46.825 21.925 45.925C22.825 45.025 23.8833 44.3127 25.1 43.788C26.3167 43.2633 27.6167 43.0007 29 43C30.3833 43 31.6833 43.2627 32.9 43.788C34.1167 44.3133 35.175 45.0257 36.075 45.925C36.975 46.825 37.6877 47.8833 38.213 49.1C38.7383 50.3167 39.0007 51.6167 39 53V53.45C39 53.6 38.9833 53.75 38.95 53.9L37 53.3V53C37 50.7667 36.225 48.875 34.675 47.325C33.125 45.775 31.2333 45 29 45C26.7667 45 24.875 45.775 23.325 47.325C21.775 48.875 21 50.7667 21 53C21 55.2333 21.775 57.125 23.325 58.675C24.875 60.225 26.7667 61 29 61H29.3L29.9 62.95ZM37.525 63.5L33.25 59.225L32 63L29 53L39 56L35.225 57.25L39.5 61.525L37.525 63.5Z" fill="#3030FF"/>
</svg>
