<svg width="358" height="419" viewBox="0 0 358 419" fill="none" xmlns="http://www.w3.org/2000/svg">
<path d="M69.355 375.668C148.168 375.668 202.289 418.742 240.265 418.742C278.242 418.742 358 395.708 358 211.378C358 27.0489 250.702 -8.73572e-05 208.932 -8.73572e-05C13.3306 -0.0121091 -70.2219 375.668 69.355 375.668V375.668Z" fill="#3030FF" fill-opacity="0.1"/>
<path d="M123.447 173.85C119.361 173.85 93.6594 173.85 89.2237 173.85C84.6891 173.85 81 177.825 81 182.71L81 254.198C81 259.084 84.6891 263.059 89.2237 263.059H123.447C127.982 263.059 131.671 259.084 131.671 254.198V182.71C131.671 177.825 127.982 173.85 123.447 173.85V173.85ZM114.669 179.261L113.873 183.028C113.806 183.345 113.548 183.567 113.247 183.567H99.4241C99.1223 183.567 98.8648 183.345 98.7979 183.028L98.0019 179.261H114.669ZM126.648 254.198C126.648 256.1 125.212 257.648 123.447 257.648H89.2237C87.4584 257.648 86.0222 256.1 86.0222 254.198L86.0222 182.71C86.0222 180.808 87.4584 179.261 89.2237 179.261H92.8509L93.9009 184.229C94.4916 187.025 96.7629 188.978 99.4243 188.978H113.247C115.908 188.978 118.179 187.025 118.77 184.229L119.82 179.261H123.447C125.213 179.261 126.649 180.808 126.649 182.71V254.198H126.648Z" fill="#3030FF"/>
<path d="M115.651 203.305L111.902 202.749L110.26 199.375C108.684 196.074 104.074 195.952 102.395 199.375L100.753 202.749L97.0127 203.303C93.3023 203.838 91.9545 208.634 94.6146 211.245L97.2359 213.83L96.6363 217.402C95.9843 221.152 99.7065 224.064 102.961 222.356L106.366 220.545L109.784 222.363C113.022 224.061 116.748 221.152 116.096 217.402L115.494 213.814L118.043 211.242C120.796 208.555 119.242 203.822 115.651 203.305V203.305ZM111.263 210.669C110.499 211.441 110.176 212.52 110.353 213.596L110.913 216.929L107.724 215.232C106.883 214.788 105.905 214.779 105.056 215.208C104.747 215.362 105.897 214.76 101.819 216.929L102.38 213.589C102.558 212.515 102.217 211.423 101.468 210.669C101.285 210.483 102.114 211.305 99.2085 208.44L102.441 207.961C103.42 207.82 104.248 207.202 104.712 206.266C104.843 206 104.259 207.198 106.327 202.947C108.533 207.479 107.784 205.941 107.944 206.268C108.408 207.203 109.235 207.82 110.205 207.96L113.47 208.444L111.263 210.669ZM114.695 214.62C114.697 214.618 114.697 214.618 114.698 214.617C114.697 214.618 114.696 214.619 114.695 214.62Z" fill="#3030FF"/>
<path d="M108.074 226.168C107.103 225.163 105.569 225.163 104.597 226.168L94.4668 236.642C92.8381 238.325 93.948 241.299 96.2055 241.299H97.6951V246.577C97.6951 248.071 98.8194 249.282 100.206 249.282H112.465C113.852 249.282 114.976 248.071 114.976 246.577V241.299H116.466C118.723 241.299 119.834 238.326 118.205 236.642L108.074 226.168ZM109.954 238.594V243.871H102.717V238.594C102.717 237.766 102.372 237.025 101.829 236.529L106.336 231.87L110.842 236.529C110.299 237.025 109.954 237.766 109.954 238.594Z" fill="#3030FF"/>
<path d="M170.313 218.882H247.162C249.494 218.882 251.384 216.845 251.384 214.333V195.823C251.384 193.31 249.494 191.273 247.162 191.273H170.313C167.981 191.273 166.09 193.31 166.09 195.823V214.333C166.09 216.845 167.98 218.882 170.313 218.882V218.882ZM174.535 200.372H242.939V209.783H174.535V200.372Z" fill="#3030FF"/>
<path d="M170.313 271.069H199.092C201.424 271.069 203.314 269.032 203.314 266.52V230.946C203.314 228.433 201.424 226.396 199.092 226.396H170.313C167.981 226.396 166.09 228.433 166.09 230.946V266.52C166.09 269.033 167.98 271.069 170.313 271.069ZM174.535 235.495H194.869V261.97H174.535V235.495Z" fill="#3030FF"/>
<path d="M247.161 226.396H222.257C219.925 226.396 218.035 228.433 218.035 230.946C218.035 233.458 219.925 235.495 222.257 235.495H247.161C249.493 235.495 251.384 233.458 251.384 230.946C251.384 228.433 249.493 226.396 247.161 226.396Z" fill="#3030FF"/>
<path d="M247.161 244.184H222.257C219.925 244.184 218.035 246.221 218.035 248.733C218.035 251.246 219.925 253.283 222.257 253.283H247.161C249.493 253.283 251.384 251.246 251.384 248.733C251.384 246.221 249.493 244.184 247.161 244.184Z" fill="#3030FF"/>
<path d="M247.162 261.97H222.258C219.926 261.97 218.035 264.007 218.035 266.52C218.035 269.032 219.926 271.069 222.258 271.069H247.162C249.494 271.069 251.385 269.032 251.385 266.52C251.385 264.007 249.494 261.97 247.162 261.97Z" fill="#3030FF"/>
<path d="M271.777 141.801L145.708 141.801C143.376 141.801 141.485 143.838 141.485 146.35V282.251C141.485 284.763 143.376 286.801 145.708 286.801H271.777C274.109 286.801 276 284.763 276 282.251V146.35C276 143.838 274.109 141.801 271.777 141.801ZM267.555 277.701H149.931V184.265H267.555V277.701ZM267.555 175.165H149.931V150.9H267.555V175.165Z" fill="#3030FF"/>
<path d="M207.519 167.935H253.219C255.551 167.935 257.441 165.898 257.441 163.386C257.441 160.873 255.551 158.836 253.219 158.836H207.519C205.187 158.836 203.296 160.873 203.296 163.386C203.296 165.898 205.187 167.935 207.519 167.935Z" fill="#3030FF"/>
<path d="M165.035 167.893C167.345 167.893 169.218 165.875 169.218 163.385C169.218 160.896 167.345 158.878 165.035 158.878C162.724 158.878 160.851 160.896 160.851 163.385C160.851 165.875 162.724 167.893 165.035 167.893Z" fill="#3030FF"/>
<path d="M178.895 167.893C181.205 167.893 183.078 165.875 183.078 163.385C183.078 160.896 181.205 158.878 178.895 158.878C176.584 158.878 174.711 160.896 174.711 163.385C174.711 165.875 176.584 167.893 178.895 167.893Z" fill="#3030FF"/>
<path d="M192.754 167.893C195.065 167.893 196.938 165.875 196.938 163.385C196.938 160.896 195.065 158.878 192.754 158.878C190.444 158.878 188.571 160.896 188.571 163.385C188.571 165.875 190.444 167.893 192.754 167.893Z" fill="#3030FF"/>
</svg>
