<svg width="68" height="68" viewBox="0 0 68 68" fill="none" xmlns="http://www.w3.org/2000/svg">
<rect width="68" height="68" rx="20" fill="#D6D6FF"/>
<g opacity="0.8" clip-path="url(#clip0_9_80)">
<path d="M31.0396 32.8731H36.9603C37.5454 32.8731 38.0197 32.3988 38.0197 31.8137V28.2122C38.0197 25.9957 36.2164 24.1924 33.9999 24.1924C31.7834 24.1924 29.9802 25.9957 29.9802 28.2122V31.8137C29.9802 32.3988 30.4545 32.8731 31.0396 32.8731ZM32.0989 28.2121C32.0989 27.1639 32.9517 26.3111 33.9999 26.3111C35.0482 26.3111 35.901 27.1639 35.901 28.2121V30.7543H32.0989V28.2121Z" fill="#3030FF"/>
<path d="M34.0002 23.4488C35.7663 23.4488 37.2032 22.0119 37.2032 20.2457C37.2032 18.4795 35.7663 17.0427 34.0002 17.0427C32.234 17.0427 30.7971 18.4795 30.7971 20.2457C30.7971 22.0119 32.234 23.4488 34.0002 23.4488ZM34.0002 19.1614C34.598 19.1614 35.0845 19.6478 35.0845 20.2457C35.0845 20.8436 34.598 21.3301 34.0002 21.3301C33.4023 21.3301 32.9158 20.8436 32.9158 20.2457C32.9158 19.6478 33.4022 19.1614 34.0002 19.1614Z" fill="#3030FF"/>
<path d="M21.0197 42.2768C18.8032 42.2768 17 44.08 17 46.2965V49.8981C17 50.4832 17.4743 50.9574 18.0594 50.9574H23.98C24.5651 50.9574 25.0394 50.4832 25.0394 49.8981V46.2965C25.0394 44.08 23.2362 42.2768 21.0197 42.2768ZM22.9207 48.8386H19.1187V46.2965C19.1187 45.2483 19.9715 44.3955 21.0197 44.3955C22.0679 44.3955 22.9207 45.2483 22.9207 46.2965V48.8386Z" fill="#3030FF"/>
<path d="M21.0197 41.5331C22.7859 41.5331 24.2228 40.0963 24.2228 38.3301C24.2228 36.5639 22.7859 35.127 21.0197 35.127C19.2535 35.127 17.8167 36.5639 17.8167 38.3301C17.8167 40.0962 19.2535 41.5331 21.0197 41.5331ZM21.0197 37.2457C21.6176 37.2457 22.1041 37.7322 22.1041 38.3301C22.1041 38.928 21.6176 39.4144 21.0197 39.4144C20.4218 39.4144 19.9354 38.928 19.9354 38.3301C19.9354 37.7321 20.4218 37.2457 21.0197 37.2457Z" fill="#3030FF"/>
<path d="M46.9801 42.2768C44.7636 42.2768 42.9604 44.08 42.9604 46.2965V49.8981C42.9604 50.4832 43.4347 50.9574 44.0198 50.9574H49.9405C50.5256 50.9574 50.9999 50.4832 50.9999 49.8981V46.2965C50.9999 44.08 49.1966 42.2768 46.9801 42.2768ZM48.8811 48.8386H45.0792V46.2965C45.0792 45.2483 45.932 44.3955 46.9801 44.3955C48.0284 44.3955 48.8811 45.2483 48.8811 46.2965V48.8386Z" fill="#3030FF"/>
<path d="M46.9804 41.5331C48.7466 41.5331 50.1834 40.0963 50.1834 38.3301C50.1834 36.5639 48.7466 35.127 46.9804 35.127C45.2142 35.127 43.7773 36.5639 43.7773 38.3301C43.7773 40.0962 45.2142 41.5331 46.9804 41.5331ZM46.9804 37.2457C47.5783 37.2457 48.0647 37.7322 48.0647 38.3301C48.0647 38.928 47.5783 39.4144 46.9804 39.4144C46.3825 39.4144 45.896 38.928 45.896 38.3301C45.896 37.7321 46.3824 37.2457 46.9804 37.2457Z" fill="#3030FF"/>
<path d="M39.5884 44.0461L35.0593 41.1616V36.5605C35.0593 35.9754 34.5851 35.5012 34 35.5012C33.4149 35.5012 32.9406 35.9754 32.9406 36.5605V41.1616L28.4115 44.0461C27.9165 44.3613 27.7737 45.0168 28.0871 45.5087C28.4014 46.0022 29.0561 46.1475 29.5497 45.8331L34 42.9987C38.7464 46.0216 38.5823 45.999 39.0184 45.999C40.0711 45.9991 40.4824 44.6155 39.5884 44.0461Z" fill="#3030FF"/>
</g>
<defs>
<clipPath id="clip0_9_80">
<rect width="34" height="34" fill="white" transform="translate(17 17)"/>
</clipPath>
</defs>
</svg>
