<svg width="68" height="68" viewBox="0 0 68 68" fill="none" xmlns="http://www.w3.org/2000/svg">
<rect width="68" height="68" rx="20" fill="#D6D6FF"/>
<g opacity="0.8">
<path d="M24.2866 36.7693H43.711C44.3004 36.7693 44.7783 36.2642 44.7783 35.6412V31.0517C44.7783 30.4287 44.3004 29.9236 43.711 29.9236H24.2866C23.6971 29.9236 23.2192 30.4287 23.2192 31.0517V35.6412C23.2192 36.2642 23.6971 36.7693 24.2866 36.7693ZM25.3539 32.1798H42.6437V34.5132H25.3539V32.1798Z" fill="#3030FF"/>
<path d="M24.2866 49.709H31.5608C32.1502 49.709 32.6281 49.2039 32.6281 48.5809V39.7603C32.6281 39.1374 32.1502 38.6323 31.5608 38.6323H24.2866C23.6971 38.6323 23.2192 39.1374 23.2192 39.7603V48.5809C23.2192 49.204 23.6971 49.709 24.2866 49.709ZM25.3539 40.8884H30.4934V47.4529H25.3539V40.8884Z" fill="#3030FF"/>
<path d="M43.711 38.6323H37.4162C36.8268 38.6323 36.3489 39.1374 36.3489 39.7603C36.3489 40.3833 36.8268 40.8884 37.4162 40.8884H43.711C44.3004 40.8884 44.7783 40.3833 44.7783 39.7603C44.7783 39.1374 44.3004 38.6323 43.711 38.6323Z" fill="#3030FF"/>
<path d="M43.711 43.0427H37.4162C36.8268 43.0427 36.3489 43.5478 36.3489 44.1707C36.3489 44.7937 36.8268 45.2988 37.4162 45.2988H43.711C44.3004 45.2988 44.7783 44.7937 44.7783 44.1707C44.7783 43.5478 44.3004 43.0427 43.711 43.0427Z" fill="#3030FF"/>
<path d="M43.711 47.4529H37.4162C36.8268 47.4529 36.3489 47.958 36.3489 48.5809C36.3489 49.2039 36.8268 49.709 37.4162 49.709H43.711C44.3004 49.709 44.7783 49.2039 44.7783 48.5809C44.7783 47.958 44.3004 47.4529 43.711 47.4529Z" fill="#3030FF"/>
<path d="M49.9327 17.6569H18.0673C17.4779 17.6569 17 18.162 17 18.785V52.4814C17 53.1044 17.4779 53.6095 18.0673 53.6095H49.9327C50.5221 53.6095 51 53.1044 51 52.4814V18.785C51 18.162 50.5221 17.6569 49.9327 17.6569ZM48.8653 51.3534H19.1347V28.1858H48.8653V51.3534ZM48.8653 25.9297H19.1347V19.913H48.8653V25.9297Z" fill="#3030FF"/>
<path d="M33.6906 24.137H45.2416C45.8311 24.137 46.309 23.632 46.309 23.009C46.309 22.386 45.8311 21.8809 45.2416 21.8809H33.6906C33.1012 21.8809 32.6233 22.386 32.6233 23.009C32.6233 23.632 33.1011 24.137 33.6906 24.137Z" fill="#3030FF"/>
<path d="M22.9525 24.1265C23.5365 24.1265 24.01 23.6261 24.01 23.0089C24.01 22.3916 23.5365 21.8912 22.9525 21.8912C22.3685 21.8912 21.895 22.3916 21.895 23.0089C21.895 23.6261 22.3685 24.1265 22.9525 24.1265Z" fill="#3030FF"/>
<path d="M26.4554 24.1265C27.0394 24.1265 27.5129 23.6261 27.5129 23.0089C27.5129 22.3916 27.0394 21.8912 26.4554 21.8912C25.8714 21.8912 25.3979 22.3916 25.3979 23.0089C25.3979 23.6261 25.8714 24.1265 26.4554 24.1265Z" fill="#3030FF"/>
<path d="M29.9591 24.1265C30.5431 24.1265 31.0165 23.6261 31.0165 23.0089C31.0165 22.3916 30.5431 21.8912 29.9591 21.8912C29.3751 21.8912 28.9016 22.3916 28.9016 23.0089C28.9016 23.6261 29.3751 24.1265 29.9591 24.1265Z" fill="#3030FF"/>
</g>
</svg>
