<svg width="68" height="68" viewBox="0 0 68 68" fill="none" xmlns="http://www.w3.org/2000/svg">
<rect width="68" height="68" rx="20" fill="#D6D6FF"/>
<g opacity="0.8">
<path d="M41.2672 16.0063C39.4125 16.0063 27.7463 16.0063 25.7328 16.0063C23.6745 16.0063 22 17.6082 22 19.5772V48.388C22 50.3571 23.6745 51.9589 25.7328 51.9589H41.2672C43.3255 51.9589 45 50.3571 45 48.388V19.5772C45 17.6082 43.3255 16.0063 41.2672 16.0063V16.0063ZM37.2827 18.1871L36.9213 19.7053C36.891 19.833 36.774 19.9223 36.6371 19.9223H30.3629C30.226 19.9223 30.1091 19.833 30.0787 19.7053L29.7174 18.1871H37.2827ZM42.7203 48.388C42.7203 49.1546 42.0685 49.7782 41.2672 49.7782H25.7329C24.9316 49.7782 24.2798 49.1546 24.2798 48.388V19.5772C24.2798 18.8106 24.9316 18.1871 25.7329 18.1871H27.3794L27.8559 20.1894C28.1241 21.3161 29.155 22.1031 30.363 22.1031H36.6372C37.8452 22.1031 38.8761 21.3161 39.1443 20.1894L39.6208 18.1871H41.2673C42.0686 18.1871 42.7205 18.8106 42.7205 19.5772V48.388H42.7203Z" fill="#3030FF"/>
<path d="M39.8959 24.6443H27.1042C26.4746 24.6443 25.9644 25.1325 25.9644 25.7346V31.3082C25.9644 31.9104 26.4747 32.3986 27.1042 32.3986H39.8959C40.5255 32.3986 41.0357 31.9104 41.0357 31.3082V25.7346C41.0358 25.1324 40.5255 24.6443 39.8959 24.6443ZM38.7561 30.2179H28.244V26.825H38.7561V30.2179Z" fill="#3030FF"/>
<path d="M32.7254 34.0671H27.1042C26.4746 34.0671 25.9644 34.5553 25.9644 35.1574V45.4441C25.9644 46.0463 26.4747 46.5344 27.1042 46.5344H32.7254C33.3549 46.5344 33.8652 46.0462 33.8652 45.4441V35.1574C33.8652 34.5552 33.3549 34.0671 32.7254 34.0671ZM31.5855 44.3537H28.244V36.2478H31.5855V44.3537Z" fill="#3030FF"/>
<path d="M39.8959 34.0671H37.0295C36.3999 34.0671 35.8896 34.5553 35.8896 35.1574C35.8896 35.7596 36.4 36.2478 37.0295 36.2478H39.8959C40.5254 36.2478 41.0357 35.7596 41.0357 35.1574C41.0357 34.5553 40.5254 34.0671 39.8959 34.0671Z" fill="#3030FF"/>
<path d="M39.8959 39.2103H37.0295C36.3999 39.2103 35.8896 39.6985 35.8896 40.3007C35.8896 40.9028 36.4 41.391 37.0295 41.391H39.8959C40.5254 41.391 41.0357 40.9028 41.0357 40.3007C41.0357 39.6985 40.5254 39.2103 39.8959 39.2103Z" fill="#3030FF"/>
<path d="M39.8959 44.3536H37.0295C36.3999 44.3536 35.8896 44.8418 35.8896 45.444C35.8896 46.0461 36.4 46.5343 37.0295 46.5343H39.8959C40.5254 46.5343 41.0357 46.0461 41.0357 45.444C41.0357 44.8418 40.5254 44.3536 39.8959 44.3536Z" fill="#3030FF"/>
</g>
</svg>
